<?xml version="1.0" encoding="UTF-8"?>
<svg version="1.1" viewBox="0 0 1728 1700" width="1280" height="1280" xmlns="http://www.w3.org/2000/svg">
<path transform="translate(813,157)" d="m0 0h650l22 3 16 4 15 6 17 9 16 12 10 9 9 9 11 15 9 16 8 20 4 16 2 14 1 19v469l-1 23-4 24-6 17-8 16-6 10-10 13-11 12-11 9-11 8-16 9-19 8-16 4-20 3-18 1-8 11-10 14-9 11-12 14-28 28-11 9-16 13-19 13-15 10-26 15-26 13-34 14-21 7-9-2-7-8-1-9 4-8 11-15 10-15 12-21 8-16 9-21 10-30 6-26 1-2h-167v342l-1 19-4 20-5 16-5 12-10 18-10 13-5 6-8 7-7 7-16 11-19 10-23 8-20 3-19 1-439 1 9 35 10 28 13 28 12 21 16 24 9 13 2 9-4 8-5 5-3 1h-7l-25-9-26-11-29-14-23-13-24-16-19-14-28-24-20-20-9-11-8-9-14-19-8-12-30-2-16-3-20-7-16-8-14-9-13-11-13-13-11-15-9-16-8-19-5-21-2-18v-497l3-21 4-16 9-21 9-15 9-12 9-10 7-7 16-12 17-10 20-8 18-5 8-1h376l1-368 4-16 5-16 9-19 12-18 12-13 10-10 15-11 16-9 20-8 24-5zm-3 31-20 4-16 6-15 8-13 10-10 9-10 13-9 16-5 11-5 16-1 5-1 173v330l2 20 6 19 8 16 7 11 12 14 13 11 13 8 17 8 16 4 14 2 475 2 6 3 4 8-1 14-3 17-6 24-7 22-8 21-13 28-6 10-1 5 6-1 19-10 23-13 15-10 17-12 16-13 15-13 21-21 7-8 13-16 12-17 9-14 4-3 5-1 26-1 27-5 16-6 14-8 12-9 16-16 10-15 7-14 5-15 3-19v-502l-3-19-6-16-8-16-9-12-9-10-10-9-16-10-15-7-13-4-18-3zm-448 493-58 1-16 3-15 5-16 8-14 10-12 11-11 14-9 16-6 16-5 24v500l5 25 8 19 8 13 8 10 6 7 8 7 13 9 15 8 21 7 20 2h18l11 2 5 4 16 24 10 13 11 13 9 10 18 18 8 7 17 14 17 12 15 10 22 13 21 11 9 4-1-5-12-22-10-23-7-19-6-19-6-24-3-20-1-9 4-8 7-5 470-1 21-2 21-7 17-9 14-11 12-12 10-14 8-16 5-13 4-18 1-9v-351l-251-1-24-3-16-4-19-8-11-6-16-11-15-14-11-13-10-16-8-16-6-18-4-16-1-126-5-1z" fill="#0B4FA9"/>
<path transform="translate(983,499)" d="m0 0h14l9 3 9 6 7 8 8 16 1 4v22l-8 21-5 11-6 16-5 10h105l13 2 12 5 7 6 6 9 3 10v16l-3 9-6 8-8 7-3 3 1 3v12l-4 11-6 9-7 6 1 6 1 2v9l-4 13-7 9-8 7-13 5h-2v13l-3 9-7 11-10 8-8 3-17 1h-129l-17-1-12-6-2-2-6 1-7 3-11 1h-52l-10-2-7-4-7-8-2-4-1-184 3-9 6-7 7-5 3-1 34-1h15l23 1 8 4 8 9 2 4 7-1 12-5 10-9 9-15 16-29 13-23 12-22 9-10zm8 32-13 24-14 25-9 15-12 22-8 10-9 8-14 8-26 9v134l11 8 7 3h143l5-2 2-7-3-4-38-1-11-1-5-4-4-7v-7l5-8 6-3 79-1 4-4v-7l-4-3-79-1-7-3-4-9v-6l6-9 3-2 95-1 5-3 1-7-5-4-97-1-5-6-3-6 1-7 4-8 5-2h103l13-1 3-4v-6l-3-3-129-1-8-3-5-5-4-6-1-3v-9l6-16 11-26 10-25 2-6-1-8-5-9zm-182 99-1 2v159l1 1h46l1-5v-156l-1-1z" fill="#0B4FA9"/>
<path transform="translate(474,739)" d="m0 0h21l17 4 15 8 9 7 10 10 9 14 5 12 2 11v20l-3 14-8 16-8 11-12 13-98 98-10 5-9-2-10-9-102-102-8-10-6-10-5-13-2-10v-21l4-16 8-16 6-8 10-10 13-8 12-5 10-2h27l16 4 13 7 13 10 7 7v2l5-3 7-8 14-10 14-7zm-122 31-13 3-10 6-8 8-6 10-3 13v11l3 12 6 10 27 27 4 5h2v2h2l2 4h2l2 4 59 59 7-6 88-88 8-10 5-10 2-16-1-11-4-9-4-6-4-5-10-7-9-4-5-1h-20l-11 4-9 7-23 23-4 2h-12l-10-9-17-17-10-7-9-3-7-1z" fill="#0B4FA9"/>
<path transform="translate(292,1266)" d="m0 0h650l7 2 4 4 3 7-1 8-6 8-6 2h-652l-5-3-4-6-1-3v-8l3-6 5-4z" fill="#1455AC"/>
<path transform="translate(292,1152)" d="m0 0h647l9 1 6 7 2 5-1 7-5 8-3 2-5 1h-651l-6-4-4-8v-8l4-7 4-3z" fill="#0C4FA9"/>
<path transform="translate(832,397)" d="m0 0h654l6 3 4 5 1 3v7l-3 7-5 5-17 1h-637l-7-3-4-6v-14l3-5z" fill="#0F52AB"/>
<path transform="translate(831,283)" d="m0 0h657l7 6 2 5v8l-3 6-5 5-650 1-10-2-4-5-1-2v-14l5-7z" fill="#044AA7"/>
<path transform="translate(1121,506)" d="m0 0h358l10 1 5 4 3 7v7l-4 8-3 3-6 1h-364l-5-3-4-6-1-3v-8l4-6 4-4z" fill="#1355AC"/>
<path transform="translate(290,1043)" d="m0 0h367l5 2 5 6 1 3v8l-6 9-4 2-362 1-8-2-5-6-2-5 1-10 4-6z" fill="#064CA8"/>
<path transform="translate(1266,625)" d="m0 0h220l6 3 4 5 1 9-2 7-6 6-3 1h-219l-6-4-5-8v-8l6-9z" fill="#054AA7"/>
<path transform="translate(1266,739)" d="m0 0h219l7 3 4 5 1 4v7l-3 6-6 5-5 1h-215l-7-4-5-7v-9l4-6z" fill="#0C50A9"/>
</svg>
