<svg xmlns="http://www.w3.org/2000/svg" xmlns:xlink="http://www.w3.org/1999/xlink" width="1080" zoomAndPan="magnify" viewBox="0 0 810 809.999993" height="1080" preserveAspectRatio="xMidYMid meet" version="1.0"><path fill="#5ce1e6" d="M 534.246094 259.449219 L 472.972656 259.449219 L 484.941406 230.726562 C 492.601562 214.453125 479.355469 188.921875 459.730469 193.070312 C 455.582031 194.1875 452.070312 197.058594 449.835938 200.890625 L 423.507812 248.121094 C 419.839844 255.300781 412.179688 258.652344 404.839844 260.566406 C 403.085938 254.183594 397.339844 249.554688 390.480469 249.554688 L 358.566406 249.554688 C 350.269531 249.554688 343.570312 256.257812 343.570312 264.554688 L 343.570312 360.929688 C 343.570312 369.226562 350.269531 375.929688 358.566406 375.929688 L 390.480469 375.929688 C 394.148438 375.929688 397.339844 374.492188 400.054688 372.417969 C 404.679688 376.089844 410.425781 378.480469 416.488281 378.480469 C 416.488281 378.480469 495.3125 378.480469 495.3125 378.480469 C 508.714844 378.640625 519.566406 366.035156 516.851562 352.953125 C 530.574219 351.675781 539.988281 336.996094 534.882812 324.230469 C 542.703125 319.445312 546.691406 309.230469 543.980469 300.457031 C 564.5625 290.5625 557.222656 259.449219 534.246094 259.449219 Z M 387.925781 358.21875 L 361.121094 358.21875 L 361.121094 266.949219 L 387.925781 266.949219 Z M 534.882812 284.820312 C 527.863281 284.820312 481.910156 284.820312 473.769531 284.820312 C 462.28125 284.820312 462.28125 302.371094 473.769531 302.371094 L 523.394531 302.371094 C 528.820312 302.53125 528.339844 310.1875 522.917969 310.1875 C 518.449219 310.1875 479.355469 310.1875 473.769531 310.1875 C 462.28125 310.1875 462.28125 327.742188 473.769531 327.742188 C 473.769531 327.742188 514.9375 327.742188 514.9375 327.742188 C 520.363281 327.902344 519.886719 335.558594 514.300781 335.558594 C 514.300781 335.558594 495.792969 335.558594 495.792969 335.558594 L 473.769531 335.558594 C 468.984375 335.558594 464.996094 339.546875 464.996094 344.335938 C 464.996094 349.121094 468.984375 353.113281 473.769531 353.113281 L 495.789062 353.113281 C 497.226562 353.113281 498.183594 353.910156 498.664062 354.386719 C 500.898438 356.460938 498.980469 361.25 495.3125 360.929688 C 495.3125 360.929688 416.488281 360.929688 416.488281 360.929688 C 413.136719 361.410156 408.191406 356.144531 405.480469 354.867188 L 405.480469 279.074219 L 416.011719 275.722656 C 425.742188 272.53125 433.878906 265.992188 438.828125 257.054688 L 464.675781 210.78125 C 468.984375 213.8125 470.738281 219.398438 468.664062 224.34375 L 454.144531 259.449219 C 452.390625 263.4375 452.867188 268.066406 455.261719 271.734375 C 457.65625 275.40625 461.804688 277.480469 466.113281 277.480469 L 534.246094 277.480469 C 539.671875 277 540.308594 284.5 534.882812 284.820312 Z M 725.878906 0 L 368.9375 0 C 322.824219 0 285.328125 37.496094 285.328125 83.609375 L 285.328125 278.277344 L 83.800781 278.277344 C 37.6875 278.277344 0.03125 315.773438 0.03125 361.886719 L 0.03125 632.503906 C 0.03125 678.617188 37.527344 716.277344 83.800781 716.277344 L 88.429688 716.277344 C 118.746094 762.867188 164.699219 794.78125 219.109375 813.128906 C 222.78125 814.40625 226.769531 813.128906 229.003906 809.9375 C 231.238281 806.746094 231.078125 802.597656 228.84375 799.40625 C 209.375 774.035156 196.292969 746.59375 190.707031 716.117188 L 440.742188 716.117188 C 486.855469 716.117188 524.351562 678.460938 524.351562 632.34375 L 524.351562 438 L 619.132812 438 C 613.386719 468.476562 600.625 495.601562 580.996094 521.289062 C 578.605469 524.320312 578.605469 528.628906 580.835938 531.820312 C 583.070312 535.011719 587.21875 536.289062 590.730469 535.011719 C 645.300781 516.34375 690.9375 484.910156 721.414062 438 C 769.121094 440.390625 809.96875 402.257812 809.808594 354.386719 C 809.808594 354.386719 809.808594 83.609375 809.808594 83.609375 C 809.648438 37.496094 772.152344 0 725.878906 0 Z M 506.800781 632.664062 C 506.800781 669.203125 477.121094 698.882812 440.742188 698.882812 L 180.335938 698.882812 C 175.230469 698.722656 170.921875 703.671875 171.558594 708.777344 C 175.070312 736.859375 184.164062 762.070312 198.527344 786.484375 C 157.996094 767.972656 123.371094 740.210938 100.714844 703.03125 C 97.84375 697.289062 88.746094 699.042969 83.800781 698.882812 C 47.261719 698.882812 17.582031 669.203125 17.582031 632.664062 L 17.582031 362.046875 C 17.582031 325.667969 47.261719 295.988281 83.800781 295.988281 L 285.328125 295.988281 L 285.328125 354.386719 C 285.328125 400.5 322.824219 438 368.9375 438 L 506.800781 438 Z M 792.097656 354.386719 C 792.097656 390.769531 762.417969 420.445312 725.878906 420.445312 C 720.613281 420.605469 711.839844 418.851562 708.964844 424.59375 C 685.988281 462.09375 652.003906 489.378906 610.996094 508.046875 C 625.515625 483.15625 634.292969 458.902344 638.121094 430.339844 C 638.917969 425.234375 634.609375 420.289062 629.503906 420.289062 L 368.9375 420.289062 C 332.558594 420.289062 302.878906 390.609375 302.878906 354.226562 L 302.878906 83.609375 C 302.878906 47.230469 332.558594 17.550781 368.9375 17.550781 L 725.878906 17.550781 C 762.417969 17.550781 792.097656 47.230469 792.097656 83.609375 Z M 741.515625 88.398438 L 377.875 88.398438 C 366.226562 88.238281 366.386719 71.003906 377.875 70.847656 L 741.515625 70.847656 C 753.164062 71.003906 753.003906 88.238281 741.515625 88.398438 Z M 741.515625 152.703125 L 377.875 152.703125 C 366.226562 152.542969 366.386719 135.308594 377.875 135.148438 L 741.515625 135.148438 C 753.164062 135.308594 753.003906 152.542969 741.515625 152.703125 Z M 540.308594 214.453125 C 528.820312 214.453125 528.820312 196.898438 540.308594 196.898438 L 741.515625 196.898438 C 753.003906 196.898438 753.003906 214.453125 741.515625 214.453125 Z M 435.476562 642.875 L 71.832031 642.875 C 60.1875 642.71875 60.34375 625.484375 71.832031 625.324219 L 435.476562 625.324219 C 447.125 625.644531 446.964844 642.71875 435.476562 642.875 Z M 71.832031 561.019531 L 435.476562 561.019531 C 447.125 561.179688 446.964844 578.414062 435.476562 578.574219 L 71.832031 578.574219 C 60.1875 578.414062 60.503906 561.179688 71.832031 561.019531 Z M 71.832031 499.269531 L 273.042969 499.269531 C 284.53125 499.269531 284.53125 516.824219 273.042969 516.824219 L 71.832031 516.824219 C 60.34375 516.824219 60.503906 499.269531 71.832031 499.269531 Z M 741.515625 281.308594 L 622.800781 281.308594 C 611.3125 281.308594 611.3125 263.757812 622.800781 263.757812 L 741.515625 263.757812 C 753.003906 263.757812 753.003906 281.148438 741.515625 281.308594 Z M 741.515625 345.613281 L 622.800781 345.613281 C 611.3125 345.613281 611.3125 328.058594 622.800781 328.058594 L 741.515625 328.058594 C 753.003906 328.058594 753.003906 345.453125 741.515625 345.613281 Z M 136.296875 462.410156 C 139.648438 465.761719 145.234375 465.761719 148.742188 462.410156 L 209.21875 401.9375 C 250.863281 355.34375 182.25 297.902344 142.519531 346.410156 C 116.511719 313.0625 63.855469 328.378906 63.058594 371.300781 C 63.058594 382.789062 67.527344 393.640625 75.824219 401.9375 Z M 88.269531 353.113281 C 97.683594 343.21875 115.074219 343.21875 124.488281 353.113281 L 136.296875 364.917969 C 139.648438 368.269531 145.390625 368.269531 148.742188 364.917969 L 160.550781 353.113281 C 175.707031 337.316406 205.226562 349.121094 204.269531 371.300781 C 204.269531 378.164062 201.558594 384.546875 196.769531 389.492188 L 142.519531 443.902344 L 88.269531 389.332031 C 78.214844 379.757812 78.214844 362.683594 88.269531 353.113281 Z M 88.269531 353.113281 " fill-opacity="1" fill-rule="nonzero"/></svg>