<svg xmlns="http://www.w3.org/2000/svg" xmlns:xlink="http://www.w3.org/1999/xlink" width="1080" zoomAndPan="magnify" viewBox="0 0 810 809.999993" height="1080" preserveAspectRatio="xMidYMid meet" version="1.0"><defs><clipPath id="87af52c8fd"><path d="M 243.878906 243 L 566.378906 243 L 566.378906 567 L 243.878906 567 Z M 243.878906 243 " clip-rule="nonzero"/></clipPath></defs><g clip-path="url(#87af52c8fd)"><path fill="#5ce1e6" d="M 456.417969 346.21875 L 432.039062 346.21875 L 436.800781 334.792969 C 439.847656 328.316406 434.582031 318.160156 426.773438 319.808594 C 425.121094 320.253906 423.726562 321.398438 422.835938 322.921875 L 412.363281 341.710938 C 410.902344 344.566406 407.855469 345.902344 404.933594 346.664062 C 404.238281 344.125 401.953125 342.28125 399.222656 342.28125 L 386.527344 342.28125 C 383.226562 342.28125 380.558594 344.949219 380.558594 348.25 L 380.558594 386.589844 C 380.558594 389.890625 383.226562 392.558594 386.527344 392.558594 L 399.222656 392.558594 C 400.683594 392.558594 401.953125 391.988281 403.03125 391.160156 C 404.871094 392.621094 407.15625 393.574219 409.570312 393.574219 C 409.570312 393.574219 440.929688 393.574219 440.929688 393.574219 C 446.261719 393.636719 450.578125 388.621094 449.496094 383.417969 C 454.957031 382.910156 458.703125 377.070312 456.671875 371.992188 C 459.78125 370.085938 461.367188 366.023438 460.289062 362.53125 C 468.476562 358.597656 465.558594 346.21875 456.417969 346.21875 Z M 398.207031 385.511719 L 387.542969 385.511719 L 387.542969 349.203125 L 398.207031 349.203125 Z M 456.671875 356.3125 C 453.878906 356.3125 435.597656 356.3125 432.359375 356.3125 C 427.789062 356.3125 427.789062 363.292969 432.359375 363.292969 L 452.101562 363.292969 C 454.257812 363.355469 454.070312 366.40625 451.910156 366.40625 C 450.132812 366.40625 434.582031 366.40625 432.359375 366.40625 C 427.789062 366.40625 427.789062 373.386719 432.359375 373.386719 C 432.359375 373.386719 448.734375 373.386719 448.734375 373.386719 C 450.894531 373.449219 450.703125 376.496094 448.480469 376.496094 C 448.480469 376.496094 441.117188 376.496094 441.117188 376.496094 L 432.359375 376.496094 C 430.453125 376.496094 428.867188 378.085938 428.867188 379.988281 C 428.867188 381.894531 430.453125 383.480469 432.359375 383.480469 L 441.117188 383.480469 C 441.691406 383.480469 442.070312 383.796875 442.261719 383.988281 C 443.148438 384.8125 442.386719 386.71875 440.929688 386.589844 C 440.929688 386.589844 409.570312 386.589844 409.570312 386.589844 C 408.234375 386.78125 406.269531 384.6875 405.1875 384.179688 L 405.1875 354.027344 L 409.378906 352.691406 C 413.25 351.421875 416.488281 348.820312 418.457031 345.265625 L 428.738281 326.855469 C 430.453125 328.0625 431.152344 330.285156 430.328125 332.253906 L 424.550781 346.21875 C 423.851562 347.804688 424.042969 349.644531 424.996094 351.105469 C 425.945312 352.566406 427.597656 353.390625 429.3125 353.390625 L 456.417969 353.390625 C 458.574219 353.199219 458.828125 356.183594 456.671875 356.3125 Z M 532.65625 243 L 390.652344 243 C 372.304688 243 357.390625 257.917969 357.390625 276.261719 L 357.390625 353.707031 L 277.214844 353.707031 C 258.867188 353.707031 243.886719 368.625 243.886719 386.972656 L 243.886719 494.632812 C 243.886719 512.980469 258.804688 527.960938 277.214844 527.960938 L 279.054688 527.960938 C 291.117188 546.496094 309.398438 559.191406 331.042969 566.492188 C 332.503906 567 334.09375 566.492188 334.980469 565.222656 C 335.871094 563.953125 335.804688 562.300781 334.917969 561.03125 C 327.171875 550.941406 321.96875 540.019531 319.746094 527.898438 L 419.21875 527.898438 C 437.5625 527.898438 452.480469 512.914062 452.480469 494.570312 L 452.480469 417.25 L 490.1875 417.25 C 487.902344 429.375 482.824219 440.167969 475.015625 450.386719 C 474.0625 451.59375 474.0625 453.308594 474.953125 454.578125 C 475.84375 455.847656 477.492188 456.355469 478.890625 455.847656 C 500.597656 448.421875 518.753906 435.914062 530.878906 417.25 C 549.859375 418.203125 566.109375 403.03125 566.046875 383.988281 C 566.046875 383.988281 566.046875 276.261719 566.046875 276.261719 C 565.984375 257.917969 551.066406 243 532.65625 243 Z M 445.5 494.695312 C 445.5 509.234375 433.691406 521.039062 419.21875 521.039062 L 315.621094 521.039062 C 313.589844 520.976562 311.875 522.945312 312.128906 524.976562 C 313.523438 536.148438 317.144531 546.179688 322.855469 555.890625 C 306.730469 548.527344 292.957031 537.480469 283.941406 522.691406 C 282.800781 520.40625 279.183594 521.105469 277.214844 521.039062 C 262.675781 521.039062 250.871094 509.234375 250.871094 494.695312 L 250.871094 387.035156 C 250.871094 372.5625 262.675781 360.753906 277.214844 360.753906 L 357.390625 360.753906 L 357.390625 383.988281 C 357.390625 402.332031 372.304688 417.25 390.652344 417.25 L 445.5 417.25 Z M 559 383.988281 C 559 398.460938 547.191406 410.269531 532.65625 410.269531 C 530.5625 410.332031 527.070312 409.632812 525.925781 411.917969 C 516.785156 426.835938 503.265625 437.691406 486.949219 445.117188 C 492.726562 435.214844 496.21875 425.566406 497.742188 414.203125 C 498.058594 412.171875 496.347656 410.207031 494.3125 410.207031 L 390.652344 410.207031 C 376.179688 410.207031 364.371094 398.398438 364.371094 383.925781 L 364.371094 276.261719 C 364.371094 261.789062 376.179688 249.984375 390.652344 249.984375 L 532.65625 249.984375 C 547.191406 249.984375 559 261.789062 559 276.261719 Z M 538.878906 278.167969 L 394.207031 278.167969 C 389.574219 278.105469 389.636719 271.25 394.207031 271.183594 L 538.878906 271.183594 C 543.511719 271.25 543.449219 278.105469 538.878906 278.167969 Z M 538.878906 303.75 L 394.207031 303.75 C 389.574219 303.6875 389.636719 296.832031 394.207031 296.765625 L 538.878906 296.765625 C 543.511719 296.832031 543.449219 303.6875 538.878906 303.75 Z M 458.828125 328.316406 C 454.257812 328.316406 454.257812 321.332031 458.828125 321.332031 L 538.878906 321.332031 C 543.449219 321.332031 543.449219 328.316406 538.878906 328.316406 Z M 417.125 498.757812 L 272.453125 498.757812 C 267.820312 498.695312 267.882812 491.839844 272.453125 491.777344 L 417.125 491.777344 C 421.757812 491.902344 421.695312 498.695312 417.125 498.757812 Z M 272.453125 466.195312 L 417.125 466.195312 C 421.757812 466.257812 421.695312 473.113281 417.125 473.175781 L 272.453125 473.175781 C 267.820312 473.113281 267.945312 466.257812 272.453125 466.195312 Z M 272.453125 441.628906 L 352.5 441.628906 C 357.070312 441.628906 357.070312 448.609375 352.5 448.609375 L 272.453125 448.609375 C 267.882812 448.609375 267.945312 441.628906 272.453125 441.628906 Z M 538.878906 354.914062 L 491.648438 354.914062 C 487.078125 354.914062 487.078125 347.933594 491.648438 347.933594 L 538.878906 347.933594 C 543.449219 347.933594 543.449219 354.851562 538.878906 354.914062 Z M 538.878906 380.496094 L 491.648438 380.496094 C 487.078125 380.496094 487.078125 373.515625 491.648438 373.515625 L 538.878906 373.515625 C 543.449219 373.515625 543.449219 380.433594 538.878906 380.496094 Z M 298.097656 426.964844 C 299.433594 428.296875 301.652344 428.296875 303.050781 426.964844 L 327.109375 402.90625 C 343.675781 384.367188 316.382812 361.515625 300.574219 380.8125 C 290.226562 367.546875 269.277344 373.640625 268.960938 390.71875 C 268.960938 395.289062 270.738281 399.605469 274.039062 402.90625 Z M 278.992188 383.480469 C 282.738281 379.542969 289.65625 379.542969 293.402344 383.480469 L 298.097656 388.179688 C 299.433594 389.511719 301.71875 389.511719 303.050781 388.179688 L 307.746094 383.480469 C 313.777344 377.195312 325.523438 381.894531 325.140625 390.71875 C 325.140625 393.445312 324.0625 395.984375 322.15625 397.953125 L 300.574219 419.601562 L 278.992188 397.890625 C 274.992188 394.082031 274.992188 387.289062 278.992188 383.480469 Z M 278.992188 383.480469 " fill-opacity="1" fill-rule="nonzero"/></g></svg>